<?xml version="1.0" encoding="iso-8859-1"?>
<!DOCTYPE svg PUBLIC "-//W3C//DTD SVG 1.1//EN" "http://www.w3.org/Graphics/SVG/1.1/DTD/svg11.dtd">
<svg version="1.1" xmlns="http://www.w3.org/2000/svg" xmlns:xlink="http://www.w3.org/1999/xlink" x="0px" y="0px"
     viewBox="0 0 297.5 297.5" style="enable-background:new 0 0 297.5 297.5;" xml:space="preserve">
<g id="XMLID_30_">
	<path style="fill:#3b7ddd;" d="M249.755,139.51v3.86c-5.31-2.87-11.39-4.5-17.84-4.5c-10.96,0-20.84,4.71-27.72,12.22
		c-6.88-7.51-16.76-12.22-27.72-12.22c-10.97,0-20.85,4.71-27.73,12.22c-6.88-7.51-16.76-12.22-27.72-12.22
		s-20.84,4.71-27.72,12.22c-6.88-7.51-16.77-12.22-27.73-12.22c-6.45,0-12.53,1.63-17.84,4.5v-3.86
		c0-55.7,45.32-101.01,101.01-101.01C204.445,38.5,249.755,83.81,249.755,139.51z"/>
    <path d="M269.525,139.51v36.96c0,5.46-4.43,9.89-9.88,9.89c-5.46,0-9.89-4.43-9.89-9.89c0-9.83-8-17.84-17.84-17.84
			c-9.83,0-17.84,8.01-17.84,17.84c0,5.46-4.42,9.89-9.88,9.89c-5.46,0-9.88-4.43-9.88-9.89c0-9.83-8.01-17.84-17.84-17.84
			c-9.84,0-17.84,8.01-17.84,17.84v89.33c0,17.34-14.11,31.45-31.45,31.45s-31.45-14.11-31.45-31.45c0-5.45,4.43-9.88,9.89-9.88
			s9.88,4.43,9.88,9.88c0,6.44,5.24,11.68,11.68,11.68c6.44,0,11.68-5.24,11.68-11.68v-89.33c0-9.83-8-17.84-17.84-17.84
			s-17.84,8.01-17.84,17.84c0,5.46-4.43,9.89-9.88,9.89c-5.46,0-9.89-4.43-9.89-9.89c0-9.83-8-17.84-17.84-17.84
			c-9.83,0-17.84,8.01-17.84,17.84c0,5.46-4.42,9.89-9.88,9.89s-9.88-4.43-9.88-9.89v-36.96c0-63.27,48.9-115.33,110.89-120.37
			v-9.01c0-5.45,4.42-9.88,9.88-9.88c5.46,0,9.89,4.43,9.89,9.88v9.01C220.625,24.18,269.525,76.24,269.525,139.51z M249.755,143.37
			v-3.86c0-55.7-45.31-101.01-101.01-101.01c-55.69,0-101.01,45.31-101.01,101.01v3.86c5.31-2.87,11.39-4.5,17.84-4.5
			c10.96,0,20.85,4.71,27.73,12.22c6.88-7.51,16.76-12.22,27.72-12.22s20.84,4.71,27.72,12.22c6.88-7.51,16.76-12.22,27.73-12.22
			c10.96,0,20.84,4.71,27.72,12.22c6.88-7.51,16.76-12.22,27.72-12.22C238.365,138.87,244.445,140.5,249.755,143.37z"/>
</g>
</svg>
